HIERARCHY
ROOT Hips
{
    OFFSET 0.000000 0.000000 0.000000
    CHANNELS 6 Xposition Yposition Zposition Zrotation Xrotation Yrotation
    JOINT Spine
    {
        OFFSET -0.000000 8.104110 0.000000
        CHANNELS 3 Zrotation Xrotation Yrotation
        JOINT Spine1
        {
            OFFSET -0.000000 22.417536 0.000000
            CHANNELS 3 Zrotation Xrotation Yrotation
            JOINT Neck
            {
                OFFSET -0.000000 22.325472 2.029588
                CHANNELS 3 Zrotation Xrotation Yrotation
                JOINT Head
                {
                    OFFSET -0.000000 13.836284 -1.976612
                    CHANNELS 3 Zrotation Xrotation Yrotation
                    End Site
                    {
                        OFFSET -0.000000 24.707651 0.000000
                    }
                }
            }
            JOINT LeftShoulder
            {
                OFFSET 3.973640 20.379602 -0.279950
                CHANNELS 3 Zrotation Xrotation Yrotation
                JOINT LeftArm
                {
                    OFFSET 11.493720 0.000000 0.000000
                    CHANNELS 3 Zrotation Xrotation Yrotation
                    JOINT LeftForeArm
                    {
                        OFFSET 31.336695 0.000000 0.000000
                        CHANNELS 3 Zrotation Xrotation Yrotation
                        JOINT LeftHand
                        {
                            OFFSET 29.043781 0.000000 0.000000
                            CHANNELS 3 Zrotation Xrotation Yrotation
                            End Site
                            {
                                OFFSET 14.824592 0.000000 0.000000
                            }
                        }
                    }
                }
            }
            JOINT RightShoulder
            {
                OFFSET -3.921018 20.379602 -0.279950
                CHANNELS 3 Zrotation Xrotation Yrotation
                JOINT RightArm
                {
                    OFFSET -11.493720 0.000000 0.000000
                    CHANNELS 3 Zrotation Xrotation Yrotation
                    JOINT RightForeArm
                    {
                        OFFSET -31.336695 0.000000 0.000000
                        CHANNELS 3 Zrotation Xrotation Yrotation
                        JOINT RightHand
                        {
                            OFFSET -29.043781 0.000000 0.000000
                            CHANNELS 3 Zrotation Xrotation Yrotation
                            End Site
                            {
                                OFFSET -14.824592 0.000000 0.000000
                            }
                        }
                    }
                }
            }
        }
    }
    JOINT LeftUpLeg
    {
        OFFSET 9.883060 0.000000 0.000000
        CHANNELS 3 Zrotation Xrotation Yrotation
        JOINT LeftLeg
        {
            OFFSET -0.000000 -43.587502 0.000000
            CHANNELS 3 Zrotation Xrotation Yrotation
            JOINT LeftFoot
            {
                OFFSET -0.000000 -41.501083 0.000000
                CHANNELS 3 Zrotation Xrotation Yrotation
                JOINT LeftToeBase
                {
                    OFFSET -0.000000 -6.423989 14.824592
                    CHANNELS 3 Zrotation Xrotation Yrotation
                    End Site
                    {
                        OFFSET -0.000000 0.000000 3.953224
                    }
                }
            }
        }
    }
    JOINT RightUpLeg
    {
        OFFSET -9.883060 0.000000 0.000000
        CHANNELS 3 Zrotation Xrotation Yrotation
        JOINT RightLeg
        {
            OFFSET -0.000000 -43.587502 0.000000
            CHANNELS 3 Zrotation Xrotation Yrotation
            JOINT RightFoot
            {
                OFFSET -0.000000 -41.501083 0.000000
                CHANNELS 3 Zrotation Xrotation Yrotation
                JOINT RightToeBase
                {
                    OFFSET -0.000000 -6.423989 14.824592
                    CHANNELS 3 Zrotation Xrotation Yrotation
                    End Site
                    {
                        OFFSET -0.000000 0.000000 3.953224
                    }
                }
            }
        }
    }
}
MOTION
Frames:    6
Frame Time:    0.008333
41.522766    77.620644    122.936775    6.164063    -12.717265    174.355453    2.708225    6.124672    -1.868057    11.085506    27.168396    -4.409791    2.001670    7.836564    -22.143744    22.143385    -17.255333    -16.938526    3.580349    3.024230    -10.341813    -18.708950    37.870575    -42.205097    19.501848    -22.267677    -48.160629    39.842827    -15.581739    -4.818071    -1.205312    6.779124    7.236666    26.465002    23.677397    32.981045    -29.331682    -32.358032    53.170250    3.061061    -18.530138    10.149342    11.960261    -39.901905    15.978181    48.218647    76.982307    -52.850021    -7.121187    -35.010540    11.956015    0.000000    0.000000    0.000000    -33.100895    -45.616333    -28.685911    8.728437    24.791080    4.709876    0.327921    -13.178689    -19.198181    0.000000    0.000000    0.000000    
41.973766    77.218193    122.503136    6.179255    -12.768880    174.390518    2.638826    6.048576    -1.968016    11.263560    27.192488    -4.561121    1.935960    8.154728    -22.125374    22.298794    -17.691038    -16.780233    3.460356    3.119064    -10.416464    -18.338099    37.907413    -42.163731    19.422741    -22.414898    -48.221626    40.102821    -15.774736    -4.831491    -1.254504    6.860356    7.223305    26.770763    23.523493    32.951630    -29.803656    -32.222729    52.612049    4.796218    -18.123398    11.229467    12.224915    -39.988609    15.761434    51.018253    77.628799    -55.615543    -7.131951    -35.373325    12.164306    0.000000    0.000000    0.000000    -33.610191    -45.524620    -29.521101    8.670227    24.109188    4.616467    0.828555    -13.387692    -18.867613    0.000000    0.000000    0.000000    
42.499043    76.868912    122.021294    6.389556    -12.562635    174.284424    2.836357    6.417704    -2.067033    11.061287    26.979298    -4.569378    1.950227    8.106989    -22.059277    22.135088    -17.222555    -16.848766    3.424445    2.915198    -10.101847    -17.920103    38.360023    -42.337284    19.381399    -22.477329    -48.129871    40.120567    -15.852470    -4.761246    -1.167504    6.967222    7.399931    27.115519    23.494169    32.871822    -29.867573    -32.251591    52.462822    4.932581    -18.157681    11.242863    12.776412    -39.729755    15.895078    54.828033    78.022186    -59.380550    -7.342479    -35.550030    12.307081    0.000000    0.000000    0.000000    -33.488445    -45.329739    -29.837376    8.658450    23.534370    4.249527    1.827129    -13.636781    -18.091211    0.000000    0.000000    0.000000    
42.996101    76.523796    121.521843    6.511104    -12.459962    174.190567    2.845817    6.391540    -2.066552    11.092414    27.177801    -4.596922    2.241920    7.947146    -21.895103    21.615093    -17.154705    -16.862930    3.659936    2.794757    -10.146672    -18.101910    38.337227    -42.222515    19.163691    -22.468634    -48.370453    40.534958    -15.842073    -4.565286    -1.014961    6.885881    7.206089    27.117914    23.628105    32.930397    -29.612097    -32.308952    52.531815    3.649474    -18.472336    10.524559    13.052061    -39.535927    15.859640    58.676422    78.201324    -62.499058    -7.924696    -35.691517    11.764126    0.000000    0.000000    0.000000    -33.572933    -45.288631    -30.177698    8.762589    23.396500    3.949480    3.030732    -13.936847    -17.492699    0.000000    0.000000    0.000000    
43.593113    76.233246    121.086288    6.737654    -12.441267    173.823288    2.751840    6.657380    -1.958529    11.318034    26.928837    -4.516674    2.141636    7.990569    -21.710880    21.388824    -16.991621    -16.754103    3.462133    2.933728    -10.086080    -17.696564    38.451744    -42.125717    19.311863    -22.484932    -48.345493    40.074722    -15.931808    -5.003705    -0.955841    6.943341    7.140940    27.102375    23.739939    33.104507    -29.554260    -32.292458    52.411331    3.177397    -18.566212    10.388640    13.911613    -39.370522    16.304482    62.626308    78.419426    -66.400177    -8.441494    -35.642841    11.762683    0.000000    0.000000    0.000000    -33.168903    -45.680836    -30.521940    8.611403    23.725552    4.051184    4.436563    -13.882341    -16.803427    0.000000    0.000000    0.000000    
44.068993    75.861824    120.520569    6.703499    -12.451118    173.830185    2.917010    6.634087    -2.213188    11.193371    26.678396    -4.706294    1.889793    8.140886    -21.435364    21.142317    -16.633814    -16.575588    3.194443    3.130219    -9.945790    -17.325104    38.840740    -41.982391    19.306412    -22.825159    -48.560139    40.789246    -16.072084    -4.422384    -1.014673    7.114252    7.517411    27.578859    23.516474    32.810242    -29.377213    -32.086182    52.572536    3.044434    -18.389027    10.257125    13.881077    -39.298542    15.762014    67.130608    78.670975    -71.457069    -8.684487    -35.845097    12.412686    0.000000    0.000000    0.000000    -33.758114    -45.795437    -31.494101    8.818587    24.447227    4.892818    4.249433    -14.290339    -16.515446    0.000000    0.000000    0.000000    
